<mxfile host="app.diagrams.net" modified="2021-10-29T08:17:23.083Z" agent="5.0 (Macintosh; Intel Mac OS X 10_15_7) AppleWebKit/537.36 (KHTML, like Gecko) Chrome/95.0.4638.54 Safari/537.36" etag="zrAmrAo_3nbL2NIkcZpX" version="14.9.3" type="github">
  <diagram id="k4ojAMU12aombDE0C2ki" name="Page-1">
    <mxGraphModel dx="946" dy="563" grid="1" gridSize="10" guides="1" tooltips="1" connect="1" arrows="1" fold="1" page="1" pageScale="1" pageWidth="827" pageHeight="1169" math="0" shadow="0">
      <root>
        <mxCell id="0" />
        <mxCell id="1" parent="0" />
        <mxCell id="qCr_E0wd5vRtcSFWzO8O-10" value="Fort Protocol" style="rounded=0;whiteSpace=wrap;html=1;shadow=0;glass=0;sketch=1;strokeColor=#d6b656;fillColor=#fff2cc;verticalAlign=bottom;" vertex="1" parent="1">
          <mxGeometry x="220" y="320" width="340" height="250" as="geometry" />
        </mxCell>
        <mxCell id="qCr_E0wd5vRtcSFWzO8O-9" value="&lt;font style=&quot;font-size: 13px&quot;&gt;get price&lt;/font&gt;" style="edgeStyle=orthogonalEdgeStyle;rounded=0;orthogonalLoop=1;jettySize=auto;html=1;exitX=0;exitY=0.5;exitDx=0;exitDy=0;entryX=1;entryY=0.5;entryDx=0;entryDy=0;" edge="1" parent="1" source="qCr_E0wd5vRtcSFWzO8O-4" target="qCr_E0wd5vRtcSFWzO8O-7">
          <mxGeometry relative="1" as="geometry" />
        </mxCell>
        <mxCell id="qCr_E0wd5vRtcSFWzO8O-4" value="Hedge Protocol" style="rounded=0;whiteSpace=wrap;html=1;shadow=0;glass=0;sketch=1;strokeColor=#36393d;fillColor=#ffff88;verticalAlign=bottom;opacity=50;" vertex="1" parent="1">
          <mxGeometry x="220" y="160" width="330" height="120" as="geometry" />
        </mxCell>
        <mxCell id="qCr_E0wd5vRtcSFWzO8O-1" value="&lt;b&gt;Futures&lt;/b&gt;" style="rounded=1;whiteSpace=wrap;html=1;shadow=0;glass=0;fillColor=#cce5ff;strokeColor=#36393d;sketch=1;" vertex="1" parent="1">
          <mxGeometry x="240" y="190" width="120" height="60" as="geometry" />
        </mxCell>
        <mxCell id="qCr_E0wd5vRtcSFWzO8O-2" value="&lt;b&gt;Options&lt;/b&gt;" style="rounded=1;whiteSpace=wrap;html=1;shadow=0;glass=0;sketch=1;strokeColor=#36393d;fillColor=#cce5ff;" vertex="1" parent="1">
          <mxGeometry x="410" y="190" width="120" height="60" as="geometry" />
        </mxCell>
        <mxCell id="qCr_E0wd5vRtcSFWzO8O-7" value="&lt;b&gt;&lt;font style=&quot;font-size: 14px&quot;&gt;Nest Oracle&lt;/font&gt;&lt;/b&gt;" style="shape=hexagon;perimeter=hexagonPerimeter2;whiteSpace=wrap;html=1;fixedSize=1;rounded=0;shadow=0;glass=0;sketch=1;strokeColor=#36393d;fillColor=#cdeb8b;verticalAlign=middle;" vertex="1" parent="1">
          <mxGeometry x="10" y="180" width="120" height="80" as="geometry" />
        </mxCell>
        <mxCell id="qCr_E0wd5vRtcSFWzO8O-5" value="&lt;b&gt;Swap&lt;/b&gt;" style="rounded=1;whiteSpace=wrap;html=1;shadow=0;glass=0;sketch=1;strokeColor=#36393d;fillColor=#ffcc99;verticalAlign=middle;" vertex="1" parent="1">
          <mxGeometry x="430" y="470" width="110" height="60" as="geometry" />
        </mxCell>
        <mxCell id="qCr_E0wd5vRtcSFWzO8O-38" value="Counterparty" style="edgeStyle=orthogonalEdgeStyle;rounded=0;orthogonalLoop=1;jettySize=auto;html=1;exitX=0.2;exitY=0;exitDx=0;exitDy=0;entryX=0.5;entryY=1;entryDx=0;entryDy=0;fontSize=12;exitPerimeter=0;" edge="1" parent="1" source="qCr_E0wd5vRtcSFWzO8O-12" target="qCr_E0wd5vRtcSFWzO8O-1">
          <mxGeometry relative="1" as="geometry">
            <Array as="points" />
          </mxGeometry>
        </mxCell>
        <mxCell id="qCr_E0wd5vRtcSFWzO8O-39" value="Counterparty" style="edgeStyle=orthogonalEdgeStyle;rounded=0;orthogonalLoop=1;jettySize=auto;html=1;entryX=0.5;entryY=1;entryDx=0;entryDy=0;fontSize=12;" edge="1" parent="1" target="qCr_E0wd5vRtcSFWzO8O-2">
          <mxGeometry relative="1" as="geometry">
            <mxPoint x="470" y="340" as="sourcePoint" />
            <Array as="points">
              <mxPoint x="470" y="340" />
            </Array>
          </mxGeometry>
        </mxCell>
        <mxCell id="qCr_E0wd5vRtcSFWzO8O-12" value="&lt;font style=&quot;font-size: 17px&quot;&gt;&lt;b&gt;DAO&lt;/b&gt;&lt;/font&gt;" style="rounded=1;whiteSpace=wrap;html=1;shadow=0;glass=0;sketch=1;verticalAlign=middle;fillColor=#66FFB3;" vertex="1" parent="1">
          <mxGeometry x="240" y="340" width="300" height="60" as="geometry" />
        </mxCell>
        <mxCell id="qCr_E0wd5vRtcSFWzO8O-17" value="&lt;b&gt;&lt;font style=&quot;font-size: 16px&quot;&gt;DCU-Token&lt;/font&gt;&lt;/b&gt;" style="rounded=1;whiteSpace=wrap;html=1;shadow=0;glass=0;sketch=1;strokeColor=#000000;gradientColor=none;verticalAlign=middle;fillColor=#FF0080;" vertex="1" parent="1">
          <mxGeometry x="240" y="470" width="170" height="60" as="geometry" />
        </mxCell>
        <mxCell id="qCr_E0wd5vRtcSFWzO8O-19" value="" style="endArrow=none;html=1;exitX=0.5;exitY=0;exitDx=0;exitDy=0;entryX=0.813;entryY=1;entryDx=0;entryDy=0;entryPerimeter=0;" edge="1" parent="1" source="qCr_E0wd5vRtcSFWzO8O-5" target="qCr_E0wd5vRtcSFWzO8O-12">
          <mxGeometry width="50" height="50" relative="1" as="geometry">
            <mxPoint x="410" y="390" as="sourcePoint" />
            <mxPoint x="460" y="340" as="targetPoint" />
          </mxGeometry>
        </mxCell>
        <mxCell id="qCr_E0wd5vRtcSFWzO8O-20" value="Provide liquidity" style="edgeLabel;html=1;align=center;verticalAlign=middle;resizable=0;points=[];fontSize=12;horizontal=1;" vertex="1" connectable="0" parent="qCr_E0wd5vRtcSFWzO8O-19">
          <mxGeometry x="-0.0284" relative="1" as="geometry">
            <mxPoint as="offset" />
          </mxGeometry>
        </mxCell>
        <mxCell id="qCr_E0wd5vRtcSFWzO8O-21" value="" style="endArrow=classic;html=1;fontSize=12;exitX=0.133;exitY=0.983;exitDx=0;exitDy=0;exitPerimeter=0;" edge="1" parent="1" source="qCr_E0wd5vRtcSFWzO8O-12">
          <mxGeometry width="50" height="50" relative="1" as="geometry">
            <mxPoint x="410" y="350" as="sourcePoint" />
            <mxPoint x="280" y="470" as="targetPoint" />
          </mxGeometry>
        </mxCell>
        <mxCell id="qCr_E0wd5vRtcSFWzO8O-22" value="mint" style="edgeLabel;html=1;align=center;verticalAlign=middle;resizable=0;points=[];fontSize=12;" vertex="1" connectable="0" parent="qCr_E0wd5vRtcSFWzO8O-21">
          <mxGeometry x="-0.0573" relative="1" as="geometry">
            <mxPoint as="offset" />
          </mxGeometry>
        </mxCell>
        <mxCell id="qCr_E0wd5vRtcSFWzO8O-23" value="" style="endArrow=classic;html=1;fontSize=12;entryX=0.694;entryY=-0.017;entryDx=0;entryDy=0;entryPerimeter=0;exitX=0.393;exitY=1;exitDx=0;exitDy=0;exitPerimeter=0;" edge="1" parent="1" source="qCr_E0wd5vRtcSFWzO8O-12" target="qCr_E0wd5vRtcSFWzO8O-17">
          <mxGeometry width="50" height="50" relative="1" as="geometry">
            <mxPoint x="410" y="350" as="sourcePoint" />
            <mxPoint x="460" y="300" as="targetPoint" />
          </mxGeometry>
        </mxCell>
        <mxCell id="qCr_E0wd5vRtcSFWzO8O-24" value="burn" style="edgeLabel;html=1;align=center;verticalAlign=middle;resizable=0;points=[];fontSize=12;" vertex="1" connectable="0" parent="qCr_E0wd5vRtcSFWzO8O-23">
          <mxGeometry x="0.0148" relative="1" as="geometry">
            <mxPoint as="offset" />
          </mxGeometry>
        </mxCell>
        <mxCell id="qCr_E0wd5vRtcSFWzO8O-33" style="edgeStyle=orthogonalEdgeStyle;rounded=0;orthogonalLoop=1;jettySize=auto;html=1;entryX=0.5;entryY=0;entryDx=0;entryDy=0;fontSize=12;" edge="1" parent="1" target="qCr_E0wd5vRtcSFWzO8O-1">
          <mxGeometry relative="1" as="geometry">
            <mxPoint x="360" y="50" as="sourcePoint" />
            <Array as="points">
              <mxPoint x="360" y="50" />
              <mxPoint x="300" y="50" />
            </Array>
          </mxGeometry>
        </mxCell>
        <mxCell id="qCr_E0wd5vRtcSFWzO8O-34" value="buy&amp;amp;sell" style="edgeLabel;html=1;align=center;verticalAlign=middle;resizable=0;points=[];fontSize=12;" vertex="1" connectable="0" parent="qCr_E0wd5vRtcSFWzO8O-33">
          <mxGeometry x="0.1556" relative="1" as="geometry">
            <mxPoint as="offset" />
          </mxGeometry>
        </mxCell>
        <mxCell id="qCr_E0wd5vRtcSFWzO8O-29" value="" style="shape=umlActor;verticalLabelPosition=bottom;verticalAlign=top;html=1;outlineConnect=0;rounded=0;shadow=0;glass=0;sketch=1;fontSize=12;gradientColor=none;fillColor=#3399FF;strokeColor=#3399FF;" vertex="1" parent="1">
          <mxGeometry x="360" y="10" width="30" height="60" as="geometry" />
        </mxCell>
        <mxCell id="qCr_E0wd5vRtcSFWzO8O-31" value="User" style="shape=umlActor;verticalLabelPosition=bottom;verticalAlign=top;html=1;outlineConnect=0;rounded=0;shadow=0;glass=0;sketch=1;fontSize=12;gradientColor=none;fillColor=#3399FF;strokeColor=#3399FF;" vertex="1" parent="1">
          <mxGeometry x="370" y="20" width="30" height="60" as="geometry" />
        </mxCell>
        <mxCell id="qCr_E0wd5vRtcSFWzO8O-35" style="edgeStyle=orthogonalEdgeStyle;rounded=0;orthogonalLoop=1;jettySize=auto;html=1;exitX=1;exitY=0.3333333333333333;exitDx=0;exitDy=0;exitPerimeter=0;fontSize=12;" edge="1" parent="1" source="qCr_E0wd5vRtcSFWzO8O-32" target="qCr_E0wd5vRtcSFWzO8O-2">
          <mxGeometry relative="1" as="geometry" />
        </mxCell>
        <mxCell id="qCr_E0wd5vRtcSFWzO8O-36" value="open&amp;amp;close" style="edgeLabel;html=1;align=center;verticalAlign=middle;resizable=0;points=[];fontSize=12;" vertex="1" connectable="0" parent="qCr_E0wd5vRtcSFWzO8O-35">
          <mxGeometry x="0.04" y="-2" relative="1" as="geometry">
            <mxPoint as="offset" />
          </mxGeometry>
        </mxCell>
        <mxCell id="qCr_E0wd5vRtcSFWzO8O-45" value="swap DCU" style="edgeStyle=orthogonalEdgeStyle;rounded=0;orthogonalLoop=1;jettySize=auto;html=1;exitX=0.5;exitY=0;exitDx=0;exitDy=0;exitPerimeter=0;entryX=1;entryY=0.5;entryDx=0;entryDy=0;fontSize=12;" edge="1" parent="1" source="qCr_E0wd5vRtcSFWzO8O-32" target="qCr_E0wd5vRtcSFWzO8O-5">
          <mxGeometry relative="1" as="geometry">
            <Array as="points">
              <mxPoint x="395" y="10" />
              <mxPoint x="630" y="10" />
              <mxPoint x="630" y="500" />
            </Array>
          </mxGeometry>
        </mxCell>
        <mxCell id="qCr_E0wd5vRtcSFWzO8O-32" value="" style="shape=umlActor;verticalLabelPosition=bottom;verticalAlign=top;html=1;outlineConnect=0;rounded=0;shadow=0;glass=0;sketch=1;fontSize=12;gradientColor=none;fillColor=#3399FF;strokeColor=#3399FF;" vertex="1" parent="1">
          <mxGeometry x="380" y="30" width="30" height="60" as="geometry" />
        </mxCell>
        <mxCell id="qCr_E0wd5vRtcSFWzO8O-40" value="" style="shape=umlActor;verticalLabelPosition=bottom;verticalAlign=top;html=1;outlineConnect=0;rounded=0;shadow=0;glass=0;sketch=1;fontSize=12;gradientColor=none;fillColor=#FF3333;strokeColor=#FF3333;" vertex="1" parent="1">
          <mxGeometry x="55" y="330" width="30" height="60" as="geometry" />
        </mxCell>
        <mxCell id="qCr_E0wd5vRtcSFWzO8O-41" value="Liquidator" style="shape=umlActor;verticalLabelPosition=bottom;verticalAlign=top;html=1;outlineConnect=0;rounded=0;shadow=0;glass=0;sketch=1;fontSize=12;gradientColor=none;fillColor=#FF3333;strokeColor=#FF3333;" vertex="1" parent="1">
          <mxGeometry x="65" y="340" width="30" height="60" as="geometry" />
        </mxCell>
        <mxCell id="qCr_E0wd5vRtcSFWzO8O-43" style="edgeStyle=orthogonalEdgeStyle;rounded=0;orthogonalLoop=1;jettySize=auto;html=1;exitX=1;exitY=0.3333333333333333;exitDx=0;exitDy=0;exitPerimeter=0;entryX=0;entryY=0.75;entryDx=0;entryDy=0;fontSize=12;" edge="1" parent="1" source="qCr_E0wd5vRtcSFWzO8O-42" target="qCr_E0wd5vRtcSFWzO8O-1">
          <mxGeometry relative="1" as="geometry">
            <Array as="points">
              <mxPoint x="150" y="370" />
              <mxPoint x="150" y="235" />
            </Array>
          </mxGeometry>
        </mxCell>
        <mxCell id="qCr_E0wd5vRtcSFWzO8O-44" value="liquidation&amp;amp;earn rewards" style="edgeLabel;html=1;align=center;verticalAlign=middle;resizable=0;points=[];fontSize=12;" vertex="1" connectable="0" parent="qCr_E0wd5vRtcSFWzO8O-43">
          <mxGeometry x="-0.0778" y="-1" relative="1" as="geometry">
            <mxPoint x="1" as="offset" />
          </mxGeometry>
        </mxCell>
        <mxCell id="qCr_E0wd5vRtcSFWzO8O-42" value="" style="shape=umlActor;verticalLabelPosition=bottom;verticalAlign=top;html=1;outlineConnect=0;rounded=0;shadow=0;glass=0;sketch=1;fontSize=12;gradientColor=none;fillColor=#FF3333;strokeColor=#FF3333;" vertex="1" parent="1">
          <mxGeometry x="75" y="350" width="30" height="60" as="geometry" />
        </mxCell>
      </root>
    </mxGraphModel>
  </diagram>
</mxfile>
